<svg width="60" height="60" viewBox="0 0 60 60" fill="none" xmlns="http://www.w3.org/2000/svg">
<path d="M7.6504 13.846C5.74187 15.0539 4.53194 17.1072 4.3999 19.362V40.638C4.53194 42.8928 5.74187 44.946 7.6504 46.154L26.7397 56.8314C28.7902 57.8361 31.1902 57.8361 33.2407 56.8314L52.3497 46.154C54.2582 44.946 55.4682 42.8928 55.6002 40.638V19.362C55.4682 17.1072 54.2582 15.0539 52.3497 13.846L33.2604 3.16858C31.2099 2.16386 28.8099 2.16386 26.7594 3.16858L7.6504 13.846Z" fill="#14BF96"/>
<path d="M49.6113 24.7205C39.0127 24.7205 31.0933 33.5067 31.0933 44.2826V44.7357H28.9657V44.2826C28.9657 33.5067 21.0857 24.7599 10.408 24.7205C10.408 25.3903 10.408 26.0798 10.408 26.6905C10.3652 34.8427 15.3923 42.1635 23.0163 45.0509C25.2818 45.8816 27.6755 46.3083 30.0886 46.3117C32.5208 46.3083 34.934 45.8817 37.22 45.0509C44.8325 42.1524 49.8487 34.836 49.8085 26.6905C49.7098 26.0601 49.6704 25.3903 49.6113 24.7205Z" fill="white"/>
<path d="M30.0096 25.5478C33.2736 25.5478 35.9196 22.9018 35.9196 19.6378C35.9196 16.3738 33.2736 13.7278 30.0096 13.7278C26.7456 13.7278 24.0996 16.3738 24.0996 19.6378C24.0996 22.9018 26.7456 25.5478 30.0096 25.5478Z" fill="white"/>
</svg>
