<svg width="24" height="24" viewBox="0 0 24 24" fill="none" xmlns="http://www.w3.org/2000/svg">
<path d="M20.4898 7.52002C20.4841 7.49366 20.4841 7.46638 20.4898 7.44002C20.485 7.41694 20.485 7.3931 20.4898 7.37002V7.28002L20.4298 7.13002C20.4054 7.08909 20.3751 7.05202 20.3398 7.02002L20.2498 6.94002H20.1998L16.2598 4.45002L12.5398 2.15002C12.4538 2.08175 12.3553 2.03081 12.2498 2.00002H12.1698C12.0804 1.9851 11.9892 1.9851 11.8998 2.00002H11.7998C11.6837 2.02571 11.5723 2.06959 11.4698 2.13002L3.99982 6.78002L3.90982 6.85002L3.81982 6.93002L3.71982 7.00002L3.66982 7.06002L3.60982 7.21002V7.30002V7.36002C3.60011 7.42633 3.60011 7.49371 3.60982 7.56002V16.29C3.60948 16.46 3.65246 16.6272 3.7347 16.7759C3.81693 16.9246 3.93571 17.0499 4.07982 17.14L11.5798 21.78L11.7298 21.84H11.8098C11.979 21.8937 12.1606 21.8937 12.3298 21.84H12.4098L12.5598 21.78L19.9998 17.21C20.1439 17.1199 20.2627 16.9946 20.345 16.8459C20.4272 16.6972 20.4702 16.53 20.4698 16.36V7.63002C20.4698 7.63002 20.4898 7.56002 20.4898 7.52002ZM11.9998 4.17002L13.7798 5.27002L8.18982 8.73002L6.39982 7.63002L11.9998 4.17002ZM10.9998 19.17L5.49982 15.81V9.42002L10.9998 12.82V19.17ZM11.9998 11.06L10.0898 9.91002L15.6798 6.44002L17.5998 7.63002L11.9998 11.06ZM18.4998 15.78L12.9998 19.2V12.82L18.4998 9.42002V15.78Z" fill="#324054"/>
</svg>
